<svg xmlns="http://www.w3.org/2000/svg" viewBox="0 0 1920 1080" preserveAspectRatio="xMidYMid slice">
  <defs>
    <radialGradient id="bg_base" cx="50%" cy="45%" r="70%">
      <stop offset="0%" stop-color="#1A1A2E"/>
      <stop offset="60%" stop-color="#0F0F1A"/>
      <stop offset="100%" stop-color="#060612"/>
    </radialGradient>
    <radialGradient id="bg_vig" cx="50%" cy="50%" r="65%">
      <stop offset="50%" stop-color="#000" stop-opacity="0"/>
      <stop offset="100%" stop-color="#000" stop-opacity="0.5"/>
    </radialGradient>
  </defs>

  <!-- Dark base -->
  <rect width="1920" height="1080" fill="url(#bg_base)"/>

  <!-- Grid lines -->
  <g stroke="#3B82F6" stroke-width="0.4" opacity="0.06">
    <line x1="0" y1="108" x2="1920" y2="108"/>
    <line x1="0" y1="216" x2="1920" y2="216"/>
    <line x1="0" y1="324" x2="1920" y2="324"/>
    <line x1="0" y1="432" x2="1920" y2="432"/>
    <line x1="0" y1="540" x2="1920" y2="540"/>
    <line x1="0" y1="648" x2="1920" y2="648"/>
    <line x1="0" y1="756" x2="1920" y2="756"/>
    <line x1="0" y1="864" x2="1920" y2="864"/>
    <line x1="0" y1="972" x2="1920" y2="972"/>
    <line x1="192" y1="0" x2="192" y2="1080"/>
    <line x1="384" y1="0" x2="384" y2="1080"/>
    <line x1="576" y1="0" x2="576" y2="1080"/>
    <line x1="768" y1="0" x2="768" y2="1080"/>
    <line x1="960" y1="0" x2="960" y2="1080"/>
    <line x1="1152" y1="0" x2="1152" y2="1080"/>
    <line x1="1344" y1="0" x2="1344" y2="1080"/>
    <line x1="1536" y1="0" x2="1536" y2="1080"/>
    <line x1="1728" y1="0" x2="1728" y2="1080"/>
  </g>

  <!-- Circuit traces — crimson -->
  <g stroke="#DC2626" stroke-width="1.5" fill="none" opacity="0.1">
    <path d="M192 540 L384 540 L384 324 L576 324"/>
    <path d="M768 216 L768 432 L960 432 L960 648"/>
    <path d="M1344 756 L1152 756 L1152 540 L960 540"/>
    <path d="M1536 324 L1536 540 L1728 540"/>
    <path d="M384 864 L576 864 L576 756 L768 756"/>
    <path d="M1152 216 L1344 216 L1344 432"/>
  </g>

  <!-- Circuit traces — blue -->
  <g stroke="#3B82F6" stroke-width="1" fill="none" opacity="0.08">
    <path d="M576 108 L576 324 L768 324"/>
    <path d="M960 216 L1152 216"/>
    <path d="M192 756 L384 756 L384 648"/>
    <path d="M1536 648 L1344 648 L1344 864 L1152 864"/>
    <path d="M768 540 L768 648 L576 648"/>
    <path d="M1728 216 L1728 432 L1536 432"/>
  </g>

  <!-- Circuit nodes — crimson -->
  <g fill="#DC2626" opacity="0.2">
    <circle cx="384" cy="540" r="4"/>
    <circle cx="384" cy="324" r="3"/>
    <circle cx="576" cy="324" r="4"/>
    <circle cx="768" cy="432" r="3"/>
    <circle cx="960" cy="432" r="4"/>
    <circle cx="960" cy="648" r="3"/>
    <circle cx="1152" cy="540" r="4"/>
    <circle cx="1344" cy="756" r="3"/>
    <circle cx="1536" cy="324" r="4"/>
    <circle cx="1536" cy="540" r="3"/>
    <circle cx="576" cy="864" r="3"/>
    <circle cx="576" cy="756" r="4"/>
    <circle cx="768" cy="756" r="3"/>
    <circle cx="1344" cy="216" r="4"/>
    <circle cx="1344" cy="432" r="3"/>
  </g>

  <!-- Circuit nodes — blue -->
  <g fill="#3B82F6" opacity="0.15">
    <circle cx="576" cy="108" r="3"/>
    <circle cx="768" cy="324" r="3"/>
    <circle cx="1152" cy="216" r="3"/>
    <circle cx="384" cy="756" r="3"/>
    <circle cx="384" cy="648" r="3"/>
    <circle cx="1344" cy="648" r="3"/>
    <circle cx="1344" cy="864" r="3"/>
    <circle cx="1152" cy="864" r="3"/>
    <circle cx="768" cy="648" r="3"/>
    <circle cx="576" cy="648" r="3"/>
    <circle cx="1728" cy="432" r="3"/>
    <circle cx="1536" cy="432" r="3"/>
  </g>

  <!-- Glow spots -->
  <circle cx="960" cy="540" r="200" fill="#DC2626" opacity="0.015"/>
  <circle cx="400" cy="300" r="150" fill="#3B82F6" opacity="0.012"/>
  <circle cx="1500" cy="750" r="180" fill="#3B82F6" opacity="0.01"/>

  <!-- Scattered micro-dots -->
  <g fill="#60A5FA" opacity="0.1">
    <circle cx="288" cy="162" r="1"/>
    <circle cx="672" cy="270" r="1"/>
    <circle cx="1056" cy="378" r="1"/>
    <circle cx="480" cy="486" r="1"/>
    <circle cx="1248" cy="594" r="1"/>
    <circle cx="864" cy="810" r="1"/>
    <circle cx="1440" cy="162" r="1"/>
    <circle cx="1632" cy="918" r="1"/>
    <circle cx="96" cy="594" r="1"/>
    <circle cx="1824" cy="378" r="1"/>
  </g>
  <g fill="#EF4444" opacity="0.08">
    <circle cx="144" cy="432" r="1"/>
    <circle cx="528" cy="918" r="1"/>
    <circle cx="1008" cy="162" r="1"/>
    <circle cx="1296" cy="486" r="1"/>
    <circle cx="1680" cy="270" r="1"/>
    <circle cx="816" cy="918" r="1"/>
    <circle cx="1488" cy="594" r="1"/>
    <circle cx="336" cy="810" r="1"/>
  </g>

  <!-- Vignette -->
  <rect width="1920" height="1080" fill="url(#bg_vig)"/>
</svg>
