<svg xmlns="http://www.w3.org/2000/svg" viewBox="0 0 64 64">
  <defs>
    <linearGradient id="bg" x1="0" y1="0" x2="0" y2="1">
      <stop offset="0%" stop-color="#60A5FA"/>
      <stop offset="100%" stop-color="#3B82F6"/>
    </linearGradient>
  </defs>

  <!-- Shield -->
  <path d="M32 4 L56 14 L56 30 Q56 48 32 60 Q8 48 8 30 L8 14 Z"
        fill="#DC2626" opacity="0.15"/>
  <path d="M32 4 L56 14 L56 30 Q56 48 32 60 Q8 48 8 30 L8 14 Z"
        fill="none" stroke="#DC2626" stroke-width="2" opacity="0.8"/>

  <!-- Bold S -->
  <path d="M38 18 Q44 18 44 24 Q44 30 32 32 Q20 34 20 40 Q20 46 26 46"
        fill="none" stroke="url(#bg)" stroke-width="5"
        stroke-linecap="round"/>
  <circle cx="38" cy="18" r="2.5" fill="#60A5FA"/>
  <circle cx="26" cy="46" r="2.5" fill="#3B82F6"/>
</svg>
